<svg width="28" height="28" viewBox="0 0 28 28" fill="none" xmlns="http://www.w3.org/2000/svg">
<path d="M25.43 15.905H15.905V25.43C15.905 26.4778 15.0478 27.335 14 27.335C12.9523 27.335 12.095 26.4778 12.095 25.43V15.905H2.57004C1.52229 15.905 0.665039 15.0478 0.665039 14C0.665039 12.9523 1.52229 12.095 2.57004 12.095H12.095V2.57004C12.095 1.52229 12.9523 0.665039 14 0.665039C15.0478 0.665039 15.905 1.52229 15.905 2.57004V12.095H25.43C26.4778 12.095 27.335 12.9523 27.335 14C27.335 15.0478 26.4778 15.905 25.43 15.905Z" fill="white"/>
</svg>
