<svg width="32" height="32" viewBox="0 0 32 32" fill="none" xmlns="http://www.w3.org/2000/svg">
<path d="M22.16 3.98667C22.0052 3.83146 21.8213 3.70832 21.6188 3.6243C21.4163 3.54027 21.1992 3.49702 20.98 3.49702C20.7608 3.49702 20.5437 3.54027 20.3412 3.6243C20.1387 3.70832 19.9548 3.83146 19.8 3.98667L8.72 15.0667C8.5964 15.19 8.49834 15.3365 8.43143 15.4978C8.36452 15.6591 8.33008 15.832 8.33008 16.0067C8.33008 16.1813 8.36452 16.3542 8.43143 16.5155C8.49834 16.6768 8.5964 16.8233 8.72 16.9467L19.8 28.0267C20.4533 28.68 21.5067 28.68 22.16 28.0267C22.8133 27.3733 22.8133 26.32 22.16 25.6667L12.5067 16L22.1733 6.33334C22.8133 5.69334 22.8133 4.62667 22.16 3.98667Z" fill="#444444"/>
</svg>
