<svg width="32" height="32" viewBox="0 0 32 32" fill="none" xmlns="http://www.w3.org/2000/svg">
<path d="M22.16 3.98672C22.0052 3.83151 21.8213 3.70836 21.6188 3.62434C21.4163 3.54032 21.1992 3.49707 20.98 3.49707C20.7608 3.49707 20.5437 3.54032 20.3412 3.62434C20.1387 3.70836 19.9548 3.83151 19.8 3.98672L8.72 15.0667C8.5964 15.1901 8.49834 15.3366 8.43143 15.4979C8.36452 15.6592 8.33008 15.8321 8.33008 16.0067C8.33008 16.1813 8.36452 16.3543 8.43143 16.5155C8.49834 16.6768 8.5964 16.8234 8.72 16.9467L19.8 28.0267C20.4533 28.6801 21.5067 28.6801 22.16 28.0267C22.8133 27.3734 22.8133 26.3201 22.16 25.6667L12.5067 16L22.1733 6.33338C22.8133 5.69338 22.8133 4.62672 22.16 3.98672Z" fill="#414141"/>
</svg>
