<svg width="20" height="20" viewBox="0 0 20 20" fill="none" xmlns="http://www.w3.org/2000/svg">
<path d="M13.87 13.25L10.5 11.25V6.72C10.5 6.32 10.18 6 9.77999 6H9.71999C9.31999 6 8.99999 6.32 8.99999 6.72V11.44C8.99999 11.79 9.17999 12.12 9.48999 12.3L13.14 14.49C13.48 14.69 13.92 14.59 14.12 14.25C14.33 13.9 14.22 13.45 13.87 13.25ZM19.18 3.01L16.1 0.450001C15.68 0.100001 15.05 0.150001 14.69 0.580001C14.34 1 14.4 1.63 14.82 1.99L17.89 4.55C18.31 4.9 18.94 4.85 19.3 4.42C19.3848 4.31958 19.4489 4.20342 19.4888 4.07818C19.5286 3.95295 19.5434 3.82108 19.5323 3.69013C19.5211 3.55917 19.4843 3.4317 19.4238 3.315C19.3634 3.1983 19.2805 3.09466 19.18 3.01ZM2.09999 4.55L5.16999 1.99C5.59999 1.63 5.65999 1 5.29999 0.580001C5.21709 0.478836 5.11493 0.395138 4.99943 0.333763C4.88393 0.272388 4.75739 0.234557 4.62716 0.222463C4.49692 0.21037 4.36558 0.224256 4.24076 0.263315C4.11593 0.302375 4.0001 0.36583 3.89999 0.450001L0.819992 3.01C0.71946 3.09466 0.636602 3.1983 0.576155 3.315C0.515708 3.4317 0.478858 3.55917 0.467713 3.69013C0.456568 3.82108 0.471347 3.95295 0.511203 4.07818C0.551059 4.20342 0.615212 4.31958 0.699992 4.42C1.04999 4.85 1.67999 4.9 2.09999 4.55ZM9.99999 2C7.61291 2.00013 5.32365 2.94852 3.63582 4.63654C1.948 6.32455 0.99986 8.61392 0.999992 11.001C1.00012 13.3881 1.94852 15.6773 3.63653 17.3652C5.32455 19.053 7.61391 20.0011 10.001 20.001C11.183 20.0009 12.3533 19.7681 13.4453 19.3157C14.5373 18.8633 15.5294 18.2003 16.3652 17.3645C17.2009 16.5286 17.8638 15.5364 18.3161 14.4444C18.7683 13.3524 19.0011 12.182 19.001 11C19.0009 9.81804 18.7681 8.64766 18.3157 7.5557C17.8633 6.46373 17.2003 5.47156 16.3645 4.63583C15.5286 3.80011 14.5364 3.13719 13.4444 2.68493C12.3524 2.23268 11.182 1.99994 9.99999 2ZM9.99999 18C6.13999 18 2.99999 14.86 2.99999 11C2.99999 7.14 6.13999 4 9.99999 4C13.86 4 17 7.14 17 11C17 14.86 13.86 18 9.99999 18Z" fill="black"/>
</svg>
