<svg width="26" height="26" viewBox="0 0 26 26" fill="none" xmlns="http://www.w3.org/2000/svg">
<path d="M20.2222 0H2.88889C2.12271 0 1.38791 0.304364 0.846136 0.846136C0.304364 1.38791 0 2.12271 0 2.88889V23.1111C0 23.8773 0.304364 24.6121 0.846136 25.1539C1.38791 25.6956 2.12271 26 2.88889 26H23.1111C24.7 26 26 24.7 26 23.1111V5.77778L20.2222 0ZM13 23.1111C10.6022 23.1111 8.66667 21.1756 8.66667 18.7778C8.66667 16.38 10.6022 14.4444 13 14.4444C15.3978 14.4444 17.3333 16.38 17.3333 18.7778C17.3333 21.1756 15.3978 23.1111 13 23.1111ZM17.3333 8.66667H2.88889V2.88889H17.3333V8.66667Z" fill="white"/>
</svg>
