<svg width="20" height="16" viewBox="0 0 20 16" fill="none" xmlns="http://www.w3.org/2000/svg">
<path d="M7.08481 1V1.38C6.25481 1.05 5.36481 0.88 4.47481 0.88C3.05481 0.88 1.63481 1.31 0.424806 2.17C-0.0851938 2.53 -0.145194 3.26 0.294806 3.7L2.86481 6.27H3.97481V7.38C4.83481 8.24 5.95481 8.69 7.08481 8.74V11H5.08481C4.53481 11 4.08481 11.45 4.08481 12V14C4.08481 15.1 4.98481 16 6.08481 16H16.0848C17.7448 16 19.0848 14.66 19.0848 13V1C19.0848 0.45 18.6348 0 18.0848 0H8.08481C7.53481 0 7.08481 0.45 7.08481 1ZM5.97481 6.41V4.26H3.69481L2.65481 3.22C3.23546 2.99592 3.85241 2.88066 4.47481 2.88C5.81481 2.88 7.06481 3.4 8.01481 4.34L9.42481 5.75L9.22481 5.95C8.97356 6.20367 8.6745 6.40499 8.34493 6.54231C8.01537 6.67963 7.66184 6.75022 7.30481 6.75C6.83481 6.75 6.37481 6.63 5.97481 6.41ZM17.0848 13C17.0848 13.55 16.6348 14 16.0848 14C15.5348 14 15.0848 13.55 15.0848 13V12C15.0848 11.45 14.6348 11 14.0848 11H9.08481V8.41C9.65481 8.18 10.1848 7.84 10.6448 7.38L10.8448 7.18L13.6748 10H15.0848V8.59L9.08481 2.62V2H17.0848V13Z" fill="black"/>
</svg>
